<svg xmlns="http://www.w3.org/2000/svg" width="412.297" height="467.998" viewBox="0 0 412.297 467.998">
  <g id="组_3" data-name="组 3" transform="translate(1142.639 -1286.272)">
    <path id="路径_28" data-name="路径 28" d="M-930.342,1286.272V1334.3h16.05v-32.03h167.948v388.005h-32v16h48v-420Z" fill="#1890ff"/>
    <g id="组_8" data-name="组 8">
      <path id="路径_29" data-name="路径 29" d="M-1039.63,1445.076c-1.083-9.5-12.25-11.75-12.25-11.75s-71.5,4.25-80.833,5.583-9.667,7.25-9.667,7.25a56.81,56.81,0,0,0,0,11.167c.583,6.75,4.5,8.916,4.5,8.916-.313,1.25,8.312,5.313,9.812,5.563s5,.875,13.5-1.125,7.1.146,7.1.146l-.084,87.333s-.583,4.5,1.917,11.5,13.667,8.917,13.667,8.917a55.858,55.858,0,0,0,12.833,0c6.75-.834,9.5-8.25,9.5-8.25l-1-103.167s20.25.083,24.917-.833a8.261,8.261,0,0,0,6.083-4.917A66.78,66.78,0,0,0-1039.63,1445.076Zm-41.417,117.375a5.958,5.958,0,0,1-5.958,5.958h-9.583a5.959,5.959,0,0,1-5.959-5.958v-90.834a5.959,5.959,0,0,1,5.959-5.958h9.583a5.958,5.958,0,0,1,5.958,5.958Zm27.847-107.47-78.207,5.648a4.128,4.128,0,0,1-4.415-3.82l-.558-7.724a4.128,4.128,0,0,1,3.82-4.414l78.207-5.649a4.129,4.129,0,0,1,4.415,3.82l.558,7.724A4.129,4.129,0,0,1-1053.2,1454.981Z" fill="#1890ff"/>
      <path id="路径_30" data-name="路径 30" d="M-942.588,1507.709c-.5-13.008-18.625-17.883-18.625-17.883l-31.375-.5,1.5-18.375,33.25-2.125s9.375,1.187,10.812-4.938.4-15.4-.187-18.729-7.688-9.333-11.625-9.4-62.438.313-62.438.313-5.187.062-5.437,9.062-5.125,55.954-3,62.571,2.958,9.158,5.75,12.575a10.717,10.717,0,0,0,7.458,4.167c1.292.041,36.292-.5,36.292-.5l-.125,20.562s.625,4-6.438,3.25-37.687.188-37.687.188a11.581,11.581,0,0,0-6.5,10.25,74,74,0,0,0,0,10.812,18.357,18.357,0,0,0,7.285,9.715,17.7,17.7,0,0,0,4.465,2.1c9.437,2.937,54.5,1.75,61.5,0s10.75-1.5,12.375-15.25S-942.088,1520.717-942.588,1507.709Zm-15.459,55.45s-.666,8-10,7.417-53.416,1.083-53.416,1.083-4.5-.833-4.084-7.75.667-8.917.667-8.917.75-3.166,7.083-2.666,40.334.5,40.334.5,2.166-.834,2.083-5.917.833-30.667.833-30.667-.25-3.5-6.583-2.666-41.167,2.083-41.167,2.083-2.083.25-2.166-16-.084-55.75,4.25-57.5c0,0,50.333-.417,53-.75s6.333-1.833,7.25.667,3.416,12.916.5,15.5-43.167,3.166-43.5,3.333-4.5,31.167-2.334,34.083,38.25-2.333,42.25.334,7.584-1,7.834,19.333S-958.047,1563.159-958.047,1563.159Z" fill="#1890ff"/>
      <path id="路径_31" data-name="路径 31" d="M-828.588,1454.2s-12.125-10.875-20.5-14.125-11.25,1.875-11.25,1.875l-20,32.5c-16.063-21.5-21-26.063-26.813-31.75s-10.625-3.5-10.625-3.5-12,7-15.937,10.812-1.25,8.813-1.25,8.813l37.25,48.875s3.75,62.687,3.75,63.812-.125,9.313,3.375,8.188a4.694,4.694,0,0,1,5.375,1.875s6,5.5,19,2.625,10.625-9.375,10.625-9.375l-3.375-60.5s23.625-42.375,29.625-48.375S-828.588,1454.2-828.588,1454.2Zm-65.542,44.708s-1.833,2.083-6.083-3.167-28.084-38-28.084-38-1.708-2.625.584-4.416c0,0,6.5-8.084,9.916-8.417s3.5-2.5,11.334,9.333,21.5,28.584,21.5,28.584a7.976,7.976,0,0,1-1.667,8.166C-890.13,1494.576-894.13,1498.909-894.13,1498.909Zm52.5-39.292c-3.833,5.542-30,49.292-30,49.292l3.792,58.875s.666,3.5-4.125,4.583-11.334,2.25-13.584,2.042-3.083-1.5-3.25-5.958-3.541-64.5-3.541-64.5l36.125-58.161s1.875-2.452,5.916,0,10.459,7.161,10.459,7.161S-837.8,1454.076-841.63,1459.617Z" fill="#1890ff"/>
      <g id="组_7" data-name="组 7">
        <path id="路径_32" data-name="路径 32" d="M-1023.157,1617.969h-12.886v-4.527h31.17v4.527h-12.886v38.02h-5.4Z" fill="#1890ff"/>
        <path id="路径_33" data-name="路径 33" d="M-997.093,1650.416l3.193-3.657a16.711,16.711,0,0,0,11.783,5.282c5.572,0,8.939-2.786,8.939-6.964,0-4.354-3.077-5.747-7.082-7.546l-6.153-2.67c-3.946-1.684-8.648-4.7-8.648-10.913,0-6.559,5.688-11.319,13.408-11.319a17.448,17.448,0,0,1,12.538,5.283l-2.844,3.424a13.783,13.783,0,0,0-9.694-4c-4.818,0-7.952,2.437-7.952,6.268,0,4.121,3.715,5.689,7.023,7.081l6.095,2.612c4.934,2.148,8.765,5.05,8.765,11.377,0,6.733-5.572,12.074-14.453,12.074A20.334,20.334,0,0,1-997.093,1650.416Z" fill="#1890ff"/>
        <path id="路径_34" data-name="路径 34" d="M-947.522,1639.446l-12.77-26h5.747l5.456,12.016c1.393,3.134,2.67,6.094,4.179,9.287h.233c1.509-3.193,2.96-6.153,4.237-9.287l5.514-12.016h5.572l-12.77,26v16.543h-5.4Z" fill="#1890ff"/>
      </g>
    </g>
    <path id="路径_35" data-name="路径 35" d="M-978.321,1334.27v75.481h16V1350.27h168v388h-168V1679.75h-16v74.519h200v-420Z" fill="#1890ff"/>
  </g>
</svg>
